<mxfile host="Electron" agent="Mozilla/5.0 (Windows NT 10.0; Win64; x64) AppleWebKit/537.36 (KHTML, like Gecko) draw.io/24.7.17 Chrome/128.0.6613.36 Electron/32.0.1 Safari/537.36" version="24.7.17">
  <diagram name="Страница — 1" id="RWA4iWW7VHmDz5b1m-5r">
    <mxGraphModel dx="1434" dy="844" grid="1" gridSize="10" guides="1" tooltips="1" connect="1" arrows="1" fold="1" page="1" pageScale="1" pageWidth="827" pageHeight="1169" math="0" shadow="0">
      <root>
        <mxCell id="0" />
        <mxCell id="1" parent="0" />
        <object label="&lt;font style=&quot;font-size: 16px&quot;&gt;&lt;b&gt;%workplaceName%&lt;/b&gt;&lt;/font&gt;" workplaceName="ReplaceMe" workplaceType="1" placeholders="1" tooltip="%workplaceName%" id="lsU1ROoz8ZsTb4Rl6O_6-4">
          <mxCell style="rounded=1;whiteSpace=wrap;html=1;container=1;metaEdit=1;fillColor=#dae8fc;strokeColor=#6c8ebf;" vertex="1" parent="1">
            <mxGeometry x="120" y="190" width="200" height="110" as="geometry" />
          </mxCell>
        </object>
        <object label="A %workplaceName%" id="lsU1ROoz8ZsTb4Rl6O_6-8">
          <mxCell style="rounded=1;whiteSpace=wrap;html=1;container=1;part=1;metaEdit=1;" vertex="1" parent="lsU1ROoz8ZsTb4Rl6O_6-4">
            <mxGeometry x="40" y="10" width="120" height="60" as="geometry" />
          </mxCell>
        </object>
      </root>
    </mxGraphModel>
  </diagram>
</mxfile>
